<?xml version="1.0" standalone="no"?>
<!DOCTYPE svg PUBLIC "-//W3C//DTD SVG 20010904//EN"
 "http://www.w3.org/TR/2001/REC-SVG-20010904/DTD/svg10.dtd">
<svg version="1.0" xmlns="http://www.w3.org/2000/svg"
 width="1360.000000pt" height="1360.000000pt" viewBox="0 0 1360.000000 1360.000000"
 preserveAspectRatio="xMidYMid meet">
<metadata>
Created by potrace 1.11, written by Peter Selinger 2001-2013
</metadata>
<g transform="translate(0.000000,1360.000000) scale(0.100000,-0.100000)"
fill="#000000" stroke="none">
<path d="M0 6795 l0 -3815 520 0 520 0 0 3135 c0 1724 3 3135 8 3135 4 0 136
-316 294 -703 158 -386 426 -1042 597 -1457 170 -415 539 -1317 821 -2005 282
-687 589 -1437 682 -1665 94 -228 173 -421 175 -428 4 -10 80 -12 351 -10
l345 3 372 905 c205 498 549 1335 765 1860 216 525 518 1261 672 1635 590
1435 689 1679 793 1958 l108 287 1271 3 c1419 2 1527 1 1676 -14 889 -90 1601
-500 2055 -1184 153 -230 258 -463 335 -746 93 -341 126 -622 117 -1016 -6
-267 -18 -376 -68 -583 -118 -498 -343 -912 -675 -1244 -245 -244 -598 -478
-921 -610 -200 -82 -571 -185 -798 -221 -308 -50 -246 -48 -1715 -54 l-1385
-6 -3 -488 -2 -488 1492 4 c1629 3 1529 0 1906 63 501 83 1031 270 1448 510
764 439 1373 1190 1651 2034 125 382 188 765 187 1150 -1 556 -97 1110 -275
1588 -54 145 -213 468 -306 624 -313 524 -803 963 -1396 1248 -453 218 -856
324 -1467 387 -161 17 -316 18 -1964 18 l-1788 0 -284 -685 c-156 -377 -695
-1676 -1197 -2888 -864 -2086 -913 -2203 -935 -2200 -22 3 -140 281 -1235
2890 l-1212 2888 -767 0 -768 0 0 -3815z"/>
<path d="M6915 8958 c-3 -7 -4 -985 -3 -2173 l3 -2160 518 -3 517 -2 0 2175 0
2175 -515 0 c-403 0 -517 -3 -520 -12z"/>
</g>
</svg>
