<?xml version="1.0" encoding="utf-8"?>
<!-- Generator: Adobe Illustrator 23.0.1, SVG Export Plug-In . SVG Version: 6.00 Build 0)  -->
<svg version="1.1" id="Layer_1" xmlns="http://www.w3.org/2000/svg" xmlns:xlink="http://www.w3.org/1999/xlink" x="0px" y="0px"
	 viewBox="0 0 85.2 47.8" style="enable-background:new 0 0 85.2 47.8;" xml:space="preserve">
<style type="text/css">
	.st0{fill:#6CA9C1;}
</style>
<title>logo</title>
<g>
	<rect x="43.3" y="10.3" class="st0" width="6.5" height="27.2"/>
	<path class="st0" d="M84.7,19c-0.3-1.8-0.8-3.6-1.5-5.3c-0.8-1.8-1.7-3.6-2.9-5.1c-1.3-1.7-2.9-3.2-4.7-4.4c-2-1.4-4.3-2.4-6.6-3.1
		C66,0.3,63,0,60,0H49.8h-6.5h-3.2l-15,36.2h-0.3L9.6,0H0v47.8h6.5V8.5h0.1l16.1,39.3h4.3l15.5-37.7L44,6.1h5.9h0.4h9.3
		C62.9,6,66.1,6.6,69,8c2.2,1.1,4.2,2.7,5.7,4.7c1.3,1.7,2.3,3.7,2.8,5.8c0.5,1.8,0.7,3.6,0.7,5.4c0.1,2.7-0.5,5.4-1.6,7.8
		c-1,2.2-2.5,4.1-4.4,5.6c-1.9,1.5-4.1,2.7-6.4,3.3c-2.5,0.8-5.2,1.1-7.8,1.1h-8.2v0h-6.5v6.1h6.5v0H59c3.9,0.1,7.7-0.6,11.3-2
		c3.1-1.2,5.9-3,8.2-5.4c2.2-2.2,3.9-4.8,5-7.6c1.1-2.8,1.7-5.8,1.7-8.9C85.1,22.3,85,20.6,84.7,19z"/>
</g>
</svg>
