<svg id="Layer_1" data-name="Layer 1" xmlns="http://www.w3.org/2000/svg" viewBox="0 0 85.15 47.79"><defs><style>.cls-1{fill:#6ca9c1;}.cls-2{fill:#fff;}</style></defs><title>logo</title><path class="cls-1" d="M8.38,6H18L33.23,42.15h.27L48.55,6H58.2V53.76H51.72V14.47h-.13L35.45,53.76H31.13L15,14.47h-.14V53.76H8.38Z" transform="translate(-8.38 -5.97)"/><path class="cls-1" d="M51.75,6H68.42A30.71,30.71,0,0,1,77.3,7.12a23.66,23.66,0,0,1,6.62,3.07,19.27,19.27,0,0,1,4.65,4.42,23.58,23.58,0,0,1,2.94,5.13A25.64,25.64,0,0,1,93.06,25a27.14,27.14,0,0,1,.48,4.86,24.06,24.06,0,0,1-1.69,8.87,22.45,22.45,0,0,1-5,7.63,24.54,24.54,0,0,1-8.2,5.37,29.37,29.37,0,0,1-11.3,2H51.75Zm6.48,41.72H66.4a26.6,26.6,0,0,0,7.8-1.12,18.7,18.7,0,0,0,6.44-3.34A15.88,15.88,0,0,0,85,37.66a17.66,17.66,0,0,0,1.62-7.79,23.56,23.56,0,0,0-.74-5.37,16.21,16.21,0,0,0-2.8-5.84A16.62,16.62,0,0,0,77.4,14,20.24,20.24,0,0,0,68,12.05H58.23Z" transform="translate(-8.38 -5.97)"/><polygon class="cls-2" points="50.27 10.3 42.48 10.3 43.98 6.08 50.27 6.08 50.27 10.3"/><polygon class="cls-2" points="50.05 41.72 41.9 41.72 41.99 37.5 50.05 37.5 50.05 41.72"/></svg>